<svg width="164" height="32" viewBox="0 0 164 32" fill="none" xmlns="http://www.w3.org/2000/svg">
<path d="M13.9 11.2814C13.9 10.6337 13.9588 10.0535 14.0763 9.53692C14.1938 9.02032 14.3505 8.57922 14.5464 8.21362C14.7423 7.84802 15.0047 7.53012 15.326 7.26387C15.6472 6.99364 15.9919 6.78303 16.3523 6.62407C16.7128 6.46512 17.1398 6.34193 17.6373 6.24656C18.1309 6.15118 18.6206 6.0876 19.0985 6.05581C19.5764 6.02004 20.1249 6.00415 20.7478 6.00415V9.29848C19.9329 9.29848 19.3571 9.36206 19.0241 9.48923C18.3424 9.76343 18.0055 10.3635 18.0055 11.2894V12.2868H20.7478V15.4659H19.7723C18.7929 15.4659 18.0016 16.2687 18.0016 17.2621V25.6192H13.9V15.4659H12V12.2868H13.9V11.2814Z" fill="#2A3142"/>
<path d="M26.6475 6.00806H22.4949V25.6231H26.6475V6.00806Z" fill="#2A3142"/>
<path d="M42.0821 18.7921L42.0311 19.7736H32.4763C32.5586 20.6995 32.8838 21.4069 33.4518 21.8917C34.0198 22.3765 34.7211 22.6189 35.5594 22.6189C36.8365 22.6189 37.6318 22.2255 38.1293 21.5301L41.9058 21.546C41.4866 22.917 40.7148 23.9819 39.5905 24.737C38.4662 25.492 37.1303 25.8735 35.5868 25.8735C33.3734 25.8735 31.6223 25.2655 30.3374 24.0455C29.0524 22.8295 28.41 21.1327 28.41 18.963C28.41 16.8012 29.0524 15.1003 30.3413 13.8605C31.6302 12.6207 33.3304 12.0007 35.4458 12.0007C36.4095 12.0007 37.287 12.1358 38.0784 12.4021C38.8658 12.6723 39.5631 13.0737 40.1664 13.6102C40.7697 14.1466 41.2398 14.854 41.5689 15.7362C41.9018 16.6263 42.0703 17.6397 42.0821 18.7921ZM35.4732 14.9215C33.8866 14.9215 32.9269 15.6448 32.5899 17.0913H38.0392C37.9295 16.3919 37.6435 15.8594 37.1813 15.4818C36.7229 15.1083 36.151 14.9215 35.4732 14.9215Z" fill="#2A3142"/>
<path d="M57.4979 18.7921L57.447 19.7736H47.8922C47.9744 20.6995 48.2996 21.4069 48.8676 21.8917C49.4357 22.3765 50.1369 22.6189 50.9752 22.6189C52.2523 22.6189 53.1064 22.2215 53.5451 21.542L57.3216 21.546C56.9024 22.917 56.1307 23.9819 55.0064 24.737C53.882 25.492 52.5462 25.8735 51.0027 25.8735C48.7893 25.8735 47.0382 25.2655 45.7532 24.0455C44.4683 22.8295 43.8258 21.1327 43.8258 18.963C43.8258 16.8012 44.4683 15.1003 45.7571 13.8605C47.046 12.6207 48.7462 12.0007 50.8616 12.0007C51.8253 12.0007 52.7029 12.1358 53.4942 12.4021C54.2816 12.6723 54.9789 13.0737 55.5822 13.6102C56.1855 14.1466 56.6556 14.854 56.9847 15.7362C57.3177 16.6263 57.4901 17.6397 57.4979 18.7921ZM50.8891 14.9215C49.3025 14.9215 48.3427 15.6448 48.0058 17.0913H53.455C53.3453 16.3919 53.0594 15.8594 52.5971 15.4818C52.1387 15.1083 51.5668 14.9215 50.8891 14.9215Z" fill="#2A3142"/>
<path d="M77.3361 9.30228C76.5213 9.30228 75.9454 9.36587 75.6124 9.49303C74.9308 9.76723 74.5939 10.3673 74.5939 11.2932V12.2906H77.3361V15.4697H76.1687C75.299 15.4697 74.5939 16.185 74.5939 17.0672V25.619H70.4883V15.4658H68.6079V12.2867H70.4883V11.2773C70.4883 10.6296 70.5471 10.0494 70.6646 9.53277C70.7821 9.01617 70.9388 8.57507 71.1347 8.20947C71.3306 7.84387 71.593 7.52596 71.9143 7.25972C72.2355 6.98949 72.5803 6.77888 72.9407 6.61992C73.3011 6.46097 73.7281 6.33778 74.2256 6.24241C74.7192 6.14703 75.2089 6.08345 75.6868 6.05166C76.1648 6.0159 76.7132 6 77.3361 6V9.30228Z" fill="#049494"/>
<path d="M85.5196 25.8771C83.3219 25.8771 81.5433 25.2612 80.184 24.0253C78.8246 22.7934 78.1429 21.0965 78.1429 18.9427C78.1429 16.7968 78.8207 15.1119 80.1761 13.88C81.5316 12.6521 83.314 12.0361 85.5196 12.0361C87.7369 12.0361 89.5194 12.6521 90.8748 13.88C92.2303 15.1119 92.908 16.7968 92.908 18.9427C92.908 21.0965 92.2303 22.7894 90.867 24.0253C89.5076 25.2612 87.7252 25.8771 85.5196 25.8771ZM85.4687 22.6066C86.4755 22.6066 87.2864 22.2688 87.9054 21.5973C88.5204 20.9257 88.8299 20.0395 88.8299 18.9427C88.8299 17.8539 88.5204 16.9717 87.9054 16.3001C87.2903 15.6285 86.4755 15.2907 85.4687 15.2907C84.505 15.2907 83.7215 15.6285 83.1221 16.3001C82.5227 16.9717 82.2211 17.8539 82.2211 18.9427C82.2211 20.0316 82.5227 20.9138 83.1221 21.5933C83.7215 22.2688 84.501 22.6066 85.4687 22.6066Z" fill="#049494"/>
<path d="M117.337 18.7921L117.286 19.7736H107.732C107.814 20.6995 108.139 21.4069 108.707 21.8917C109.275 22.3765 109.976 22.6189 110.815 22.6189C112.088 22.6189 113.103 22.1977 113.463 21.5261L117.161 21.546C116.742 22.917 115.97 23.9819 114.846 24.737C113.722 25.496 112.386 25.8735 110.842 25.8735C108.625 25.8735 106.878 25.2655 105.593 24.0455C104.308 22.8295 103.665 21.1327 103.665 18.963C103.665 16.8012 104.308 15.1003 105.597 13.8605C106.885 12.6207 108.586 12.0007 110.701 12.0007C111.665 12.0007 112.542 12.1358 113.334 12.4021C114.121 12.6723 114.818 13.0737 115.422 13.6102C116.025 14.1466 116.495 14.854 116.824 15.7362C117.157 16.6263 117.33 17.6397 117.337 18.7921ZM110.729 14.9215C109.142 14.9215 108.182 15.6448 107.845 17.0913H113.294C113.185 16.3919 112.899 15.8594 112.44 15.4818C111.978 15.1083 111.406 14.9215 110.729 14.9215Z" fill="#049494"/>
<path d="M124.91 25.8773C123.339 25.8773 122 25.627 120.997 24.9514C119.724 24.097 119.085 22.6307 119.085 21.1564L122.497 21.2041C122.873 22.4121 123.688 23.0161 124.938 23.0161C125.4 23.0161 125.788 22.9327 126.101 22.7698C126.419 22.6029 126.568 22.3207 126.56 21.9194C126.56 21.665 126.481 21.4465 126.329 21.2637C126.172 21.0809 125.945 20.9259 125.643 20.8027C125.341 20.6795 125.032 20.5722 124.711 20.4768C124.389 20.3815 123.998 20.2702 123.528 20.1391C123.057 20.0079 122.65 19.8728 122.305 19.7377C121.886 19.5748 121.522 19.4039 121.208 19.2251C120.899 19.0463 120.597 18.8158 120.303 18.5376C120.01 18.2555 119.786 17.9097 119.63 17.5044C119.473 17.0951 119.398 16.6262 119.398 16.1016C119.398 14.7743 119.884 13.769 120.86 13.0815C121.831 12.394 123.112 12.0522 124.699 12.0522C126.101 12.0522 127.277 12.3344 128.225 12.9027C129.173 13.4669 130.027 14.9253 130.027 16.3083L126.881 16.2924C126.505 15.279 125.78 14.7743 124.715 14.7743C124.244 14.7743 123.861 14.8538 123.571 15.0088C123.277 15.1678 123.128 15.4022 123.128 15.7161C123.128 15.8433 123.155 15.9625 123.21 16.0658C123.265 16.1692 123.351 16.2685 123.477 16.352C123.598 16.4354 123.723 16.5109 123.849 16.5745C123.974 16.6381 124.146 16.7017 124.358 16.7613C124.573 16.8209 124.762 16.8725 124.93 16.9202C125.098 16.9679 125.318 17.0236 125.592 17.0911C125.866 17.1587 126.093 17.2183 126.278 17.2699C126.74 17.3971 127.147 17.5282 127.5 17.6673C127.852 17.8024 128.229 17.9932 128.632 18.2276C129.036 18.4661 129.365 18.7323 129.619 19.0264C129.874 19.3205 130.089 19.694 130.262 20.143C130.434 20.5961 130.52 21.0968 130.52 21.6491C130.52 22.4081 130.367 23.0638 130.066 23.6202C129.764 24.1765 129.345 24.6176 128.812 24.9355C128.279 25.2534 127.688 25.4919 127.045 25.6429C126.391 25.8018 125.682 25.8773 124.91 25.8773Z" fill="#049494"/>
<path d="M137.259 25.6229C135.923 25.6229 134.896 25.2454 134.175 24.4943C133.455 23.7393 133.094 22.6743 133.094 21.2954V15.4737H131.32V12.2946H133.129L133.11 8.05444H137.27V12.2946H139.875V15.4737H138.865C137.983 15.4737 137.27 16.1969 137.27 17.091V20.8384C137.27 21.9431 137.748 22.4995 138.704 22.4995H139.875V25.6269H137.259V25.6229Z" fill="#049494"/>
<path d="M64.2441 25.6229C62.9082 25.6229 61.8819 25.2454 61.161 24.4943C60.4402 23.7393 60.0798 22.6743 60.0798 21.2954V15.4737H58.3052V12.2946H60.1151L60.0955 8.05444H64.2559V12.2946H66.861V15.4737H65.8503C64.9688 15.4737 64.2559 16.1969 64.2559 17.091V20.8384C64.2559 21.9431 64.7338 22.4995 65.6897 22.4995H66.861V25.6269H64.2441V25.6229Z" fill="#2A3142"/>
<path d="M147.828 22.7854C148.129 22.4596 148.345 22.0224 148.345 21.5416C148.345 21.0488 148.153 20.6077 147.839 20.2819L146.551 18.9387L145.152 20.3574L142.766 22.7775C142.41 23.1391 142.41 23.7312 142.766 24.0928L144.004 25.3486C144.361 25.7102 144.944 25.7102 145.301 25.3486" fill="url(#paint0_linear_4741_54423)"/>
<path d="M149.054 16.3995L145.301 12.5925C144.944 12.2309 144.361 12.2309 144.004 12.5925L142.766 13.8482C142.41 14.2099 142.41 14.802 142.766 15.1636L145.606 18.0446L146.519 18.9666C146.519 18.9666 147.796 20.266 147.808 20.278C148.121 20.6078 148.317 21.0489 148.317 21.5377C148.317 22.0185 148.129 22.4556 147.828 22.7815L149.054 21.5377L150.586 19.9839C151.138 19.4236 151.138 18.5136 150.586 17.9493L149.054 16.3995Z" fill="#2A3142"/>
<path d="M101.288 12.1951C99.9402 12.3063 98.718 12.7673 97.7504 13.5065L97.1392 12.3222H94.6516V25.6228H98.8042V18.4142C98.8042 16.9558 99.9833 15.9544 101.409 15.7716C102.052 15.6881 102.855 15.7477 102.855 15.7477V12.2388C102.353 12.1593 101.668 12.1673 101.288 12.1951Z" fill="#049494"/>
<defs>
<linearGradient id="paint0_linear_4741_54423" x1="143.342" y1="24.8063" x2="148.185" y2="19.9358" gradientUnits="userSpaceOnUse">
<stop offset="0.1203" stop-color="#2A3142"/>
<stop offset="0.9988"/>
</linearGradient>
</defs>
</svg>
