<svg width="10" height="16" viewBox="0 0 10 16" fill="none" xmlns="http://www.w3.org/2000/svg">
<path d="M8.69709 5.36195C8.64311 4.81768 8.41146 4.39486 8.00213 4.09348C7.5928 3.79211 7.03729 3.64142 6.33558 3.64142C5.85878 3.64142 5.4562 3.7089 5.12784 3.84384C4.79948 3.97428 4.54759 4.15646 4.37216 4.39036C4.20123 4.62426 4.11577 4.88965 4.11577 5.18652C4.10677 5.43392 4.1585 5.64983 4.27095 5.83425C4.3879 6.01867 4.54759 6.17836 4.75 6.3133C4.95241 6.44374 5.18632 6.55845 5.4517 6.6574C5.71709 6.75186 6.00047 6.83283 6.30185 6.9003L7.54332 7.19718C8.14607 7.33212 8.69934 7.51204 9.20312 7.73695C9.70691 7.96185 10.1432 8.23849 10.5121 8.56685C10.8809 8.89521 11.1665 9.28205 11.369 9.72736C11.5759 10.1727 11.6816 10.6832 11.6861 11.259C11.6816 12.1046 11.4657 12.8378 11.0384 13.4585C10.6155 14.0748 10.0038 14.5538 9.20312 14.8957C8.40696 15.233 7.44661 15.4017 6.32209 15.4017C5.20656 15.4017 4.23497 15.2308 3.40732 14.8889C2.58416 14.5471 1.94093 14.041 1.47763 13.3708C1.01882 12.6961 0.778172 11.8617 0.755682 10.8676H3.58274C3.61423 11.3309 3.74692 11.7178 3.98082 12.0281C4.21922 12.334 4.53634 12.5657 4.93217 12.7231C5.3325 12.876 5.78456 12.9525 6.28835 12.9525C6.78314 12.9525 7.21271 12.8805 7.57706 12.7366C7.9459 12.5927 8.23153 12.3925 8.43395 12.1361C8.63636 11.8797 8.73757 11.5851 8.73757 11.2522C8.73757 10.9419 8.64536 10.681 8.46094 10.4695C8.28101 10.2581 8.01563 10.0782 7.66477 9.92978C7.31842 9.78134 6.89335 9.6464 6.38956 9.52495L4.88494 9.14711C3.71993 8.86372 2.80007 8.42066 2.12536 7.81792C1.45064 7.21517 1.11553 6.40326 1.12003 5.38219C1.11553 4.54554 1.33819 3.8146 1.788 3.18936C2.24231 2.56413 2.86529 2.07608 3.65696 1.72523C4.44863 1.37438 5.34825 1.19895 6.35582 1.19895C7.38139 1.19895 8.27652 1.37438 9.04119 1.72523C9.81037 2.07608 10.4086 2.56413 10.8359 3.18936C11.2633 3.8146 11.4837 4.5388 11.4972 5.36195H8.69709ZM19.1096 4.84242V7.00151H12.8685V4.84242H19.1096ZM14.2854 2.35946H17.1597V12.0214C17.1597 12.2868 17.2002 12.4937 17.2812 12.6421C17.3621 12.7861 17.4746 12.8873 17.6185 12.9458C17.767 13.0042 17.9379 13.0335 18.1313 13.0335C18.2662 13.0335 18.4012 13.0222 18.5361 12.9997C18.6711 12.9727 18.7745 12.9525 18.8465 12.939L19.2986 15.0779C19.1546 15.1228 18.9522 15.1746 18.6913 15.233C18.4304 15.296 18.1133 15.3343 17.74 15.3477C17.0473 15.3747 16.44 15.2825 15.9182 15.0711C15.401 14.8597 14.9984 14.5313 14.7105 14.086C14.4226 13.6407 14.2809 13.0785 14.2854 12.3992V2.35946ZM23.9372 15.4017C23.276 15.4017 22.6868 15.287 22.1695 15.0576C21.6522 14.8237 21.2429 14.4796 20.9415 14.0253C20.6446 13.5665 20.4962 12.9952 20.4962 12.3115C20.4962 11.7358 20.6019 11.2522 20.8133 10.8609C21.0247 10.4695 21.3126 10.1547 21.6769 9.91628C22.0413 9.67788 22.4551 9.49796 22.9184 9.37651C23.3862 9.25506 23.8765 9.1696 24.3893 9.12012C24.992 9.05714 25.4778 8.99867 25.8467 8.94469C26.2155 8.88622 26.4832 8.80075 26.6496 8.6883C26.816 8.57585 26.8992 8.40942 26.8992 8.18901V8.14853C26.8992 7.72121 26.7643 7.3906 26.4944 7.15669C26.229 6.92279 25.8512 6.80584 25.3609 6.80584C24.8436 6.80584 24.432 6.92054 24.1262 7.14995C23.8203 7.37485 23.6179 7.65823 23.5189 8.00009L20.8605 7.78418C20.9955 7.15444 21.2609 6.61017 21.6567 6.15137C22.0525 5.68806 22.5631 5.33271 23.1883 5.08532C23.818 4.83342 24.5467 4.70748 25.3744 4.70748C25.9501 4.70748 26.5012 4.77495 27.0274 4.90989C27.5582 5.04483 28.0283 5.25399 28.4376 5.53738C28.8514 5.82076 29.1775 6.1851 29.4159 6.63042C29.6543 7.07123 29.7735 7.59976 29.7735 8.216V15.2061H27.0477V13.7689H26.9667C26.8003 14.0928 26.5776 14.3784 26.2987 14.6258C26.0199 14.8687 25.6847 15.0599 25.2934 15.1993C24.9021 15.3343 24.45 15.4017 23.9372 15.4017ZM24.7604 13.4181C25.1832 13.4181 25.5566 13.3348 25.8804 13.1684C26.2043 12.9975 26.4584 12.7681 26.6428 12.4802C26.8273 12.1923 26.9195 11.8662 26.9195 11.5019V10.4021C26.8295 10.4606 26.7058 10.5145 26.5484 10.564C26.3954 10.609 26.2223 10.6517 26.0289 10.6922C25.8354 10.7282 25.642 10.7619 25.4486 10.7934C25.2552 10.8204 25.0798 10.8451 24.9223 10.8676C24.585 10.9171 24.2903 10.9958 24.0384 11.1038C23.7865 11.2117 23.5909 11.3579 23.4514 11.5423C23.312 11.7223 23.2423 11.9472 23.2423 12.2171C23.2423 12.6084 23.384 12.9075 23.6673 13.1144C23.9552 13.3169 24.3196 13.4181 24.7604 13.4181ZM32.0035 15.2061V4.84242H34.79V6.65066H34.898C35.0869 6.00743 35.404 5.52163 35.8493 5.19327C36.2947 4.86041 36.8074 4.69398 37.3877 4.69398C37.5316 4.69398 37.6868 4.70298 37.8532 4.72097C38.0197 4.73896 38.1659 4.7637 38.2918 4.79519V7.34561C38.1569 7.30513 37.9702 7.26915 37.7318 7.23766C37.4934 7.20617 37.2752 7.19043 37.0773 7.19043C36.6545 7.19043 36.2767 7.28264 35.9438 7.46706C35.6154 7.64699 35.3546 7.89888 35.1611 8.22274C34.9722 8.54661 34.8778 8.91995 34.8778 9.34277V15.2061H32.0035ZM45.8706 4.84242V7.00151H39.4743V4.84242H45.8706ZM40.9384 15.2061V4.09348C40.9384 3.3423 41.0846 2.71931 41.377 2.22452C41.6738 1.72973 42.0787 1.35863 42.5914 1.11124C43.1042 0.863843 43.6867 0.740145 44.339 0.740145C44.7798 0.740145 45.1824 0.773881 45.5467 0.841353C45.9155 0.908824 46.1899 0.969549 46.3699 1.02353L45.8571 3.18262C45.7446 3.14663 45.6052 3.1129 45.4387 3.08141C45.2768 3.04992 45.1104 3.03418 44.9395 3.03418C44.5166 3.03418 44.222 3.13314 44.0556 3.33105C43.8891 3.52447 43.8059 3.79661 43.8059 4.14746V15.2061H40.9384ZM47.6265 15.2061V4.84242H50.5008V15.2061H47.6265ZM49.0704 3.50648C48.6431 3.50648 48.2765 3.36479 47.9706 3.08141C47.6692 2.79353 47.5186 2.44943 47.5186 2.04909C47.5186 1.65326 47.6692 1.31365 47.9706 1.03027C48.2765 0.742394 48.6431 0.598455 49.0704 0.598455C49.4977 0.598455 49.8621 0.742394 50.1634 1.03027C50.4693 1.31365 50.6222 1.65326 50.6222 2.04909C50.6222 2.44943 50.4693 2.79353 50.1634 3.08141C49.8621 3.36479 49.4977 3.50648 49.0704 3.50648ZM61.4261 7.79767L58.7947 7.95961C58.7498 7.7347 58.6531 7.53229 58.5046 7.35236C58.3562 7.16794 58.1605 7.02175 57.9176 6.9138C57.6792 6.80134 57.3936 6.74512 57.0607 6.74512C56.6154 6.74512 56.2398 6.83958 55.9339 7.0285C55.6281 7.21292 55.4751 7.46032 55.4751 7.77068C55.4751 8.01808 55.5741 8.22724 55.772 8.39817C55.9699 8.5691 56.3095 8.70629 56.7908 8.80975L58.6665 9.18759C59.6741 9.3945 60.4253 9.72736 60.9201 10.1862C61.4149 10.645 61.6623 11.2477 61.6623 11.9944C61.6623 12.6736 61.4621 13.2696 61.0618 13.7824C60.666 14.2952 60.1217 14.6955 59.429 14.9834C58.7408 15.2668 57.9469 15.4085 57.0472 15.4085C55.6753 15.4085 54.5823 15.1228 53.7681 14.5516C52.9585 13.9758 52.4839 13.1932 52.3445 12.2036L55.1715 12.0551C55.257 12.4735 55.4639 12.7928 55.7923 13.0132C56.1206 13.2291 56.5412 13.3371 57.054 13.3371C57.5578 13.3371 57.9626 13.2404 58.2685 13.047C58.5788 12.849 58.7363 12.5949 58.7408 12.2845C58.7363 12.0236 58.6261 11.81 58.4102 11.6436C58.1942 11.4726 57.8614 11.3422 57.4116 11.2522L55.6168 10.8946C54.6048 10.6922 53.8513 10.3414 53.3565 9.84206C52.8662 9.34277 52.6211 8.70629 52.6211 7.93262C52.6211 7.2669 52.801 6.69339 53.1609 6.21209C53.5252 5.73079 54.0357 5.3597 54.6925 5.09881C55.3537 4.83792 56.1274 4.70748 57.0135 4.70748C58.3224 4.70748 59.3525 4.98411 60.1037 5.53738C60.8594 6.09064 61.3002 6.84408 61.4261 7.79767ZM66.3465 9.21458V15.2061H63.4722V1.38787H66.2655V6.6709H66.387C66.6209 6.05916 66.9987 5.58011 67.5205 5.23375C68.0423 4.8829 68.6968 4.70748 69.4839 4.70748C70.2036 4.70748 70.8311 4.86491 71.3664 5.17978C71.9062 5.49015 72.3245 5.93771 72.6214 6.52246C72.9227 7.10272 73.0712 7.79767 73.0667 8.60733V15.2061H70.1924V9.12012C70.1969 8.48139 70.0349 7.98435 69.7066 7.62899C69.3827 7.27364 68.9284 7.09597 68.3437 7.09597C67.9523 7.09597 67.606 7.17918 67.3046 7.34561C67.0077 7.51204 66.7738 7.75494 66.6029 8.07431C66.4365 8.38917 66.351 8.76926 66.3465 9.21458Z" fill="#BA43B1"/>
</svg>
