<svg width="161" height="27" viewBox="0 0 161 27" fill="none" xmlns="http://www.w3.org/2000/svg">
<g id="Group">
<path id="Vector" d="M111.6 0H108.9C108.679 0 108.5 0.179088 108.5 0.400002V19.9C108.5 20.1209 108.679 20.3 108.9 20.3H111.6C111.821 20.3 112 20.1209 112 19.9V0.400002C112 0.179088 111.821 0 111.6 0Z" fill="white"/>
<path id="Vector_2" d="M19.6 6.2C18.2 6 16.8 6.2 15.7 6.8V0.500008C15.7 0.300008 15.5 0.100006 15.3 0.100006H12.6C12.4 0.100006 12.2 0.300008 12.2 0.500008V19.9C12.2 20.1 12.4 20.3 12.6 20.3H15.3C15.5 20.3 15.7 20.1 15.7 19.9V12.7C15.7 11.3 16.7 10 18.1 9.7C19.5 9.4 21.7 10.8 21.7 12.6V19.9C21.7 20.1 21.9 20.3 22.1 20.3H24.8C25 20.3 25.2 20.1 25.2 19.9V12.8C25.2 9.5 22.9 6.60001 19.7 6.10001L19.6 6.2Z" fill="white"/>
<path id="Vector_3" d="M9.69998 7.4V4.7C9.69998 4.5 9.49999 4.3 9.29999 4.3H6.29999V0.400002C6.29999 0.200002 6.09998 0 5.89998 0H3.19998C2.99998 0 2.79999 0.200002 2.79999 0.400002V4.3H0.699982C0.499982 4.3 0.299988 4.5 0.299988 4.7V7.4C0.299988 7.6 0.499982 7.8 0.699982 7.8H2.79999V13.3C2.79999 17 5.69998 20.1 9.39998 20.3C13.1 20.5 9.89998 20.1 9.89998 19.9V17.2C9.89998 17 9.69998 16.8 9.49998 16.8C7.79998 16.6 6.39998 15.1 6.39998 13.4V7.9H9.39998C9.59998 7.9 9.79999 7.7 9.79999 7.5L9.69998 7.4Z" fill="white"/>
<path id="Vector_4" d="M127.1 6.19999C126.9 6.19999 126.7 6.39999 126.7 6.59999V7.99999C125.1 6.49999 122.7 5.69999 120.3 6.19999C117.9 6.69999 115.3 8.99999 114.7 11.8C113.8 16.4 117.3 20.5 121.8 20.5C126.3 20.5 125.4 19.8 126.7 18.6V19.9C126.7 20.1 126.9 20.3 127.1 20.3H129.8C130 20.3 130.2 20.1 130.2 19.9V6.59999C130.2 6.39999 130 6.19999 129.8 6.19999H127.1ZM121.7 17.1C119.7 17.1 118 15.4 118 13.4C118 11.4 119.7 9.69999 121.7 9.69999C123.7 9.69999 125.4 11.4 125.4 13.4C125.4 15.4 123.7 17.1 121.7 17.1Z" fill="white"/>
<path id="Vector_5" d="M102.1 6.4L97.7 16.1L93.3 6.4C93.3 6.2 93.1 6.1 92.9 6.1H90C89.7 6.1 89.5 6.4 89.6 6.7L95.8 20.3L93.4 25.6C93.3 25.9 93.4 26.2 93.8 26.2H96.7C96.9 26.2 97 26.2 97.1 25.9L105.9 6.6C106 6.3 105.9 6 105.5 6H102.6C102.4 6 102.3 6 102.2 6.3L102.1 6.4Z" fill="white"/>
<path id="Vector_6" d="M51.1 6.10001C49.8 6.10001 48.7 6.50001 47.7 7.10001L47 6.3C47 6.3 46.8 6.3 46.7 6.3H45C44.8 6.3 44.6 6.5 44.6 6.7V20C44.6 20.2 44.8 20.4 45 20.4H47.7C47.9 20.4 48.1 20.2 48.1 20V12.7C48.1 11.1 49.4 9.7 51 9.7C52.6 9.7 51.9 9.70001 52.5 10.1C53.1 10.5 53 10.1 53.1 9.90001L54.4 7.60001C54.5 7.40001 54.4 7.10001 54.3 7.00001C53.3 6.40001 52.2 6.10001 51 6.10001H51.1Z" fill="white"/>
<path id="Vector_7" d="M142.3 20.3H145.9C146.3 20.3 146.5 19.9 146.2 19.6L140.4 13C140.3 12.8 140.3 12.6 140.4 12.4L145.2 6.90001C145.4 6.60001 145.2 6.2 144.9 6.2H141.3C141.2 6.2 141.1 6.2 141 6.3L136.2 11.8V0.500008C136.2 0.300008 136 0.100006 135.8 0.100006H133.1C132.9 0.100006 132.7 0.300008 132.7 0.500008V19.9C132.7 20.1 132.9 20.3 133.1 20.3H135.8C136 20.3 136.2 20.1 136.2 19.9V17.2L137.8 15.4L142 20.2C142 20.2 142.2 20.3 142.3 20.3Z" fill="white"/>
<path id="Vector_8" d="M42 14.5C42 14.1 42.1 13.7 42.1 13.3C42.1 9.3 38.7999 6.10001 34.8999 6.10001C30.9999 6.10001 27.7 9.4 27.7 13.3C27.7 17.2 30.9999 20.5 34.8999 20.5C38.7999 20.5 40.4 18.7 41.5 16.2H37.1C36.5 16.7 35.6999 17 34.8999 17C33.2999 17 31.8999 15.9 31.3999 14.5H42ZM31.3999 12.1C31.8999 10.6 33.2999 9.60001 34.8999 9.60001C36.4999 9.60001 37.8999 10.7 38.3999 12.1H31.3999Z" fill="white"/>
<path id="Vector_9" d="M160.8 14.5C160.8 14.1 160.9 13.7 160.9 13.3C160.9 9.29999 157.6 5.99999 153.5 6.09999C149.7 6.09999 146.4 9.39999 146.4 13.2C146.4 17.2 149.6 20.6 153.6 20.6C157.6 20.6 158.6 19.1 159.9 16.9C161.2 14.7 159.9 16.2 159.5 16.2H155.8C155.2 16.7 154.4 17 153.6 17C152 17 150.6 15.9 150.1 14.5H160.7H160.8ZM150.2 12.1C150.7 10.6 152.1 9.59999 153.7 9.59999C155.3 9.59999 156.7 10.7 157.2 12.1H150.2Z" fill="white"/>
<path id="Vector_10" d="M81.8 20.6C77.8 20.6 74.3 17.6 70.9 14.7C68 12.2 65 9.70001 62.3 9.70001V6.20001C66.3 6.20001 69.8 9.20001 73.2 12.1C76.1 14.6 79.1 17.2 81.7 17.2V20.7L81.8 20.6Z" fill="white"/>
<path id="Vector_11" d="M69.2 15.9C68.1 15 67 14.1 66 13.4C66 15.7 63.8 17.5 61.4 17C59 16.5 59 15.6 58.7 14.3C58.1 11.9 60 9.7 62.3 9.7C64.6 9.7 63 9.7 63.4 9.9C65.6 10.4 68 12.4 70.8 14.6L67.3 8.1C65.7 6.6 63.3 5.79999 60.9 6.29999C58.5 6.79999 55.9 9.1 55.3 11.9C54.4 16.5 57.9 20.6 62.4 20.6C66.9 20.6 66 19.9 67.3 18.7V20C67.3 20.2 67.5 20.4 67.7 20.4H70.4C70.6 20.4 70.8 20.2 70.8 20V17.3C70.3 16.9 69.7 16.4 69.2 16V15.9Z" fill="white"/>
<path id="Vector_12" d="M83.3 6.19999C80.8 5.69999 78.5 6.49999 76.9 7.99999V6.59999C76.9 6.39999 76.7 6.19999 76.5 6.19999H73.8C73.6 6.19999 73.4 6.39999 73.4 6.59999V9.39999C73.8 9.69999 74.2 10.1 74.6 10.4C75.8 11.4 77 12.4 78.2 13.2C78.2 10.9 80.4 9.09999 82.8 9.69999C84.1 9.99999 85.2 11.1 85.5 12.4C86.1 14.8 84.2 17 81.9 17C79.6 17 81.3 17.1 81 17C78.7 16.6 76.2 15.5 73.4 13.1V25.8C73.4 26 73.6 26.2 73.8 26.2H76.5C76.7 26.2 76.9 26 76.9 25.8V18.5C78.2 19.7 79.9 20.4 81.8 20.4C86.3 20.4 89.8 16.3 88.9 11.7C88.4 8.89999 86.1 6.59999 83.3 6.09999V6.19999Z" fill="white"/>
</g>
</svg>
